<svg width="148" height="32" viewBox="0 0 148 32" xmlns="http://www.w3.org/2000/svg"><title>Logo</title><defs><linearGradient x1="100%" y1="0%" x2=".161%" y2="99.839%" id="a"><stop stop-color="#F6286E" offset="0%"/><stop stop-color="#FA461E" offset="100%"/></linearGradient></defs><g fill="none" fill-rule="evenodd"><path d="M28.8 15.97h-6.4V9.582H16V3.194h12.8V15.97zm3.2 0h-6.4c0 5.291-4.298 9.581-9.6 9.581s-9.6-4.29-9.6-9.581c0-5.292 4.298-9.582 9.6-9.582V0C7.163 0 0 7.15 0 15.97s7.163 15.969 16 15.969 16-7.15 16-15.97z" fill="url(#a)"/><path d="M48.636 25a8.844 8.844 0 0 0 6.317-2.688l-2.532-2.244c-.946 1.075-2.295 1.8-3.785 1.8-2.721 0-5.04-2.385-5.04-5.19 0-2.781 2.319-5.166 5.04-5.166 1.49 0 2.839.725 3.785 1.8l2.532-2.244a8.75 8.75 0 0 0-6.317-2.688C43.975 8.38 40 12.167 40 16.678 40 21.19 43.975 25 48.636 25zm11.14-10.122v-2.244H56.32V24.72h3.455v-5.773c0-2.268 1.632-3.717 4.187-3.717v-2.875c-1.869 0-3.383.958-4.187 2.524zM70.986 25c3.62 0 6.649-2.899 6.649-6.335s-3.029-6.311-6.649-6.311c-3.643 0-6.695 2.875-6.695 6.311S67.343 25 70.986 25zm0-2.875c-1.845 0-3.383-1.59-3.383-3.46 0-1.87 1.538-3.436 3.383-3.436 1.822 0 3.36 1.566 3.36 3.436 0 1.87-1.538 3.46-3.36 3.46zm10.809 2.594h3.1l2.294-7.597 2.272 7.597h3.099l4.164-12.085h-3.383l-2.319 7.527-2.413-7.527h-2.863l-2.413 7.527-2.319-7.527h-3.383l4.164 12.085zm25.264-16.34v5.985c-.97-1.262-2.39-2.01-4.116-2.01-3.265 0-5.631 2.618-5.631 6.311 0 3.717 2.366 6.335 5.63 6.335 1.728 0 3.147-.748 4.117-2.01v1.73h3.455V8.38h-3.455zm-3.123 13.746c-1.916 0-3.265-1.426-3.265-3.46 0-2.01 1.349-3.436 3.265-3.436 1.822 0 3.123 1.426 3.123 3.436 0 2.034-1.3 3.46-3.123 3.46zm13.01-10.145c0-.795.52-1.356 1.159-1.356.473 0 .946.164 1.182.397l.829-2.08c-.71-.631-1.822-1.052-2.816-1.052-2.153 0-3.667 1.52-3.667 3.693v1.052h-1.68v2.759h1.68v9.326h3.312v-9.326h2.65v-2.759h-2.65v-.654zm5.91-1.005c1.018 0 1.846-.842 1.846-1.87 0-.959-.828-1.824-1.846-1.824-1.065 0-1.893.865-1.893 1.824 0 1.028.828 1.87 1.893 1.87zm-1.75 13.744h3.454V12.634h-3.455V24.72zm9.223-9.84v-2.245h-3.455V24.72h3.455v-5.773c0-2.268 1.632-3.717 4.187-3.717v-2.875c-1.869 0-3.383.958-4.187 2.524zm11.258 7.106c-1.444 0-2.508-.889-2.91-2.198h8.825c0-4.558-2.248-7.433-6.08-7.433-3.574 0-6.294 2.641-6.294 6.288 0 3.717 2.839 6.358 6.482 6.358 1.799 0 3.904-.748 4.993-1.87l-2.2-2.22c-.663.63-1.846 1.075-2.816 1.075zm-.024-6.616c1.396 0 2.295.772 2.626 1.964h-5.465c.45-1.216 1.538-1.964 2.84-1.964z" fill="#FA461E"/></g></svg>