<svg xmlns="http://www.w3.org/2000/svg" xmlns:xlink="http://www.w3.org/1999/xlink" width="18" height="18" viewBox="0 0 18 18"><defs><rect id="a" width="18" height="18" rx="9"/></defs><g fill="none" fill-rule="evenodd"><mask id="b" fill="#fff"><use xlink:href="#a"/></mask><use fill="#0099E5" xlink:href="#a"/><g fill="#FFF" fill-rule="nonzero" mask="url(#b)"><path d="M9.496 12.846c1.84 0 3.336-1.486 3.336-3.313 0-1.826-1.497-3.312-3.336-3.312-.918 0-1.78.373-2.4 1.01V4.56h4.59a.281.281 0 0 0 .282-.28.281.281 0 0 0-.283-.281h-4.87a.281.281 0 0 0-.283.28v3.726l-.004.069a.283.283 0 0 0 .53.147 2.775 2.775 0 0 1 2.438-1.44c1.528 0 2.771 1.234 2.771 2.751 0 1.518-1.243 2.752-2.771 2.752a2.777 2.777 0 0 1-1.422-.394V9.533a1.42 1.42 0 0 1 1.422-1.412 1.42 1.42 0 0 1 1.422 1.412c0 .779-.638 1.412-1.422 1.412-.19 0-.374-.036-.548-.108a.283.283 0 0 0-.37.15.28.28 0 0 0 .153.367c.242.101.5.152.765.152a1.982 1.982 0 0 0 1.986-1.973A1.982 1.982 0 0 0 9.496 7.56a1.982 1.982 0 0 0-1.987 1.973v1.916a2.73 2.73 0 0 1-.685-1.183.282.282 0 0 0-.545.15 3.34 3.34 0 0 0 3.217 2.43z"/><path d="M7.799 5.417a.28.28 0 0 0-.143.37c.063.14.23.205.372.142.885-.39 2.624-.798 4.324.857a.282.282 0 0 0 .4-.004.28.28 0 0 0-.005-.396c-2.01-1.958-4.13-1.33-4.948-.97zm5.048 6.648a.284.284 0 0 0-.398.028 3.924 3.924 0 0 1-2.953 1.337c-1.99 0-3.661-1.478-3.887-3.439a.282.282 0 0 0-.312-.247.28.28 0 0 0-.249.31c.258 2.245 2.17 3.937 4.448 3.937a4.49 4.49 0 0 0 3.38-1.53.28.28 0 0 0-.029-.396zm-4.07-1.852a.283.283 0 0 0 .4.003l.29-.284.285.288a.283.283 0 0 0 .4.003.279.279 0 0 0 .002-.397l-.285-.288.279-.273a.279.279 0 0 0 .003-.397.284.284 0 0 0-.4-.003l-.279.274-.276-.278a.284.284 0 0 0-.399-.002.279.279 0 0 0-.003.396l.276.278-.29.283a.279.279 0 0 0-.003.397z"/></g></g></svg>