<svg xmlns="http://www.w3.org/2000/svg" xmlns:xlink="http://www.w3.org/1999/xlink" width="18" height="18" viewBox="0 0 18 18"><defs><rect id="a" width="18" height="18" rx="9"/></defs><g fill="none" fill-rule="evenodd"><mask id="b" fill="#fff"><use xlink:href="#a"/></mask><use fill="#534F65" xlink:href="#a"/><g fill="#FFF" fill-rule="nonzero" mask="url(#b)"><path d="M7.214 12.98A2.217 2.217 0 0 1 5 10.764V7.05a.643.643 0 0 1 1.286 0v3.715a.93.93 0 1 0 1.35-.828.643.643 0 0 1 .587-1.144 2.208 2.208 0 0 1 1.206 1.972 2.217 2.217 0 0 1-2.215 2.214z"/><path d="M11.072 11.408a.643.643 0 0 1-.644-.643 3.214 3.214 0 0 0-2.617-3.16.643.643 0 0 1 .236-1.263 4.5 4.5 0 0 1 3.667 4.423.643.643 0 0 1-.642.643z"/><path d="M13.357 11.408a.643.643 0 0 1-.643-.643 5.495 5.495 0 0 0-4.86-5.463.643.643 0 0 1 .149-1.277A6.78 6.78 0 0 1 14 10.765a.643.643 0 0 1-.643.643z"/></g></g></svg>