<svg xmlns="http://www.w3.org/2000/svg" xmlns:xlink="http://www.w3.org/1999/xlink" width="18" height="18" viewBox="0 0 18 18"><defs><rect id="a" width="18" height="18" rx="9"/></defs><g fill="none" fill-rule="evenodd"><mask id="b" fill="#fff"><use xlink:href="#a"/></mask><use fill="#FF680D" xlink:href="#a"/><path d="M6.275 13.768c.833-.036 1.845 0 2.832 0 1.018 0 2.06-.068 2.882 0 .331.027.637.226.91.05.21-.272.054-.636.101-1.002.089-.694.729-1.526-.202-1.703-.397.361-.13.704-.354 1.152-.272.542-1.247.73-2.174.802-.797.061-2.192.141-2.478-.401-.241-.458-.101-1.168-.101-1.753 0-.663-.071-1.298.101-1.804 1.012.074 2.32-.337 3.034.1.477.293.206.866.758 1.052.38-.102.177-.594.152-1.052-.017-.296-.015-.71 0-1.052.02-.46.198-.995-.304-1.002-.394.306-.098.817-.506 1.102-.13.091-.413.13-.606.15-.758.08-1.946.015-2.58-.1a19.31 19.31 0 0 1 0-3.106c.344-.341 1.134-.353 1.67-.35.937.003 2.4.08 2.68.55.151.256.03.79.303.852.547.125.281-.851.303-1.303.017-.338.167-.556.101-.801-.177-.242-.44-.121-.606-.1-1.72.212-4.334.1-6.169.1-.219 0-.602-.11-.758.15-.106.579.684.34.96.651.09.102.223.55.253.852.08.803 0 2.03 0 3.206 0 1.244.095 2.499 0 3.257-.033.265-.192.691-.252.752-.345.344-1.256-.037-1.164.701.32.216.784.069 1.214.05z" fill="#FFF" fill-rule="nonzero" mask="url(#b)"/></g></svg>