<svg xmlns="http://www.w3.org/2000/svg" xmlns:xlink="http://www.w3.org/1999/xlink" width="18" height="18" viewBox="0 0 18 18"><defs><rect id="a" width="18" height="18" rx="9"/></defs><g fill="none" fill-rule="evenodd"><mask id="b" fill="#fff"><use xlink:href="#a"/></mask><use fill="#95BF47" xlink:href="#a"/><g fill-rule="nonzero" mask="url(#b)"><path fill="#FFF" d="M12.707 5.267c-.007-.06-.06-.087-.1-.094-.04-.006-.914-.066-.914-.066s-.606-.6-.666-.667c-.067-.067-.194-.047-.247-.033-.007 0-.133.04-.34.106-.193-.58-.553-1.113-1.18-1.113h-.053c-.18-.233-.4-.34-.587-.34-1.46.007-2.153 1.827-2.373 2.753-.567.174-.967.3-1.02.314-.314.1-.327.106-.367.406-.033.234-.86 6.634-.86 6.634l6.447 1.206 3.493-.753c0-.007-1.227-8.293-1.233-8.353zm-2.62-.64c-.16.053-.347.106-.547.166v-.12c0-.36-.053-.653-.133-.88.326.047.546.414.68.834zm-1.074-.76c.087.226.147.546.147.98v.06c-.353.106-.74.226-1.127.346.22-.826.627-1.233.98-1.386zM8.58 3.46c.06 0 .127.02.187.06-.467.22-.967.773-1.18 1.88l-.894.273c.254-.84.84-2.213 1.887-2.213z"/><path fill="#FFF" d="M12.607 5.173c-.04-.006-.914-.066-.914-.066s-.606-.6-.666-.667a.132.132 0 0 0-.094-.04l-.486 9.973 3.493-.753s-1.227-8.293-1.233-8.347c-.007-.06-.06-.093-.1-.1z"/><path fill="#95BF47" d="M9.26 7.107l-.433 1.28s-.38-.2-.84-.2c-.68 0-.714.426-.714.533 0 .587 1.527.807 1.527 2.18 0 1.08-.687 1.773-1.607 1.773-1.106 0-1.673-.686-1.673-.686l.293-.98s.58.5 1.074.5c.32 0 .453-.254.453-.44 0-.767-1.253-.8-1.253-2.054 0-1.053.76-2.08 2.286-2.08.6.007.887.174.887.174z"/></g></g></svg>