<svg xmlns="http://www.w3.org/2000/svg" xmlns:xlink="http://www.w3.org/1999/xlink" width="18" height="18" viewBox="0 0 18 18"><defs><rect id="a" width="18" height="18" rx="9"/></defs><g fill="none" fill-rule="evenodd"><mask id="b" fill="#fff"><use xlink:href="#a"/></mask><use fill="#1AB7EA" xlink:href="#a"/><path d="M11.684 5.002c-1.25-.042-2.097.678-2.54 2.16.227-.096.45-.145.666-.145.456 0 .658.263.604.79-.027.318-.228.782-.604 1.391-.378.61-.66.915-.847.915-.243 0-.464-.472-.667-1.413-.067-.277-.188-.983-.362-2.12-.163-1.052-.593-1.544-1.292-1.475-.295.028-.738.306-1.33.831-.43.402-.868.804-1.312 1.206l.423.56c.404-.29.64-.436.706-.436.31 0 .599.499.868 1.495.241.915.485 1.83.727 2.743.361.997.806 1.496 1.33 1.496.847 0 1.884-.817 3.107-2.451 1.183-1.565 1.793-2.798 1.834-3.699.055-1.204-.382-1.82-1.31-1.848z" fill="#FFF" fill-rule="nonzero" mask="url(#b)"/></g></svg>