<svg xmlns="http://www.w3.org/2000/svg" xmlns:xlink="http://www.w3.org/1999/xlink" width="18" height="18" viewBox="0 0 18 18"><defs><rect id="a" width="18" height="18" rx="9"/></defs><g fill="none" fill-rule="evenodd"><mask id="b" fill="#fff"><use xlink:href="#a"/></mask><use fill="#0186BE" xlink:href="#a"/><path d="M3.678 6.08C4.678 4.218 6.686 3 9 3c1.498 0 2.867.637 3.918 1.536-.3-.058-.628.007-.958.196-.774.442-1.027 1.695-.024 2.324.626.39.85 1.368.828 1.965-.02.598-1.455 3.345-1.455 3.345L9.91 7.579s-.048-.336-.048-.433a.58.58 0 0 1 .116-.357c.052-.057.132-.176.226-.176h.662V6.08h-3.6v.533h.111c.118 0 .233.158.345.271.131.136.297.645.497 1.174l.523 1.72-1.128 2.602-1.237-5.199s.036-.356.11-.417c.05-.041.125-.151.211-.151h.034V6.08H3.678zm.706.904s-.292-.371-.6-.371H3.47C3.167 7.278 3 8.17 3 8.99c0 2.463 1.514 4.576 3.67 5.476L4.385 6.984zm9.78-.95c.113.539.09 1.194-.133 1.914-.58 1.874-2.016 5.246-2.572 6.53C13.546 13.548 15 11.472 15 9.059c0-1.105-.306-2.14-.837-3.026zm-5.043 5.06l-1.534 3.739a6.07 6.07 0 0 0 2.874-.011l-1.34-3.728z" fill="#FFF" fill-rule="nonzero" mask="url(#b)"/></g></svg>