<svg xmlns="http://www.w3.org/2000/svg" xmlns:xlink="http://www.w3.org/1999/xlink" width="18" height="18" viewBox="0 0 18 18"><defs><rect id="a" width="18" height="18" rx="9"/></defs><g fill="none" fill-rule="evenodd"><mask id="b" fill="#fff"><use xlink:href="#a"/></mask><use fill="#CD211F" xlink:href="#a"/><path d="M13.987 8.734c-.004-.2-.02-.454-.047-.761a6.923 6.923 0 0 0-.12-.823 1.3 1.3 0 0 0-.388-.685 1.189 1.189 0 0 0-.694-.324c-.825-.093-2.073-.14-3.742-.14s-2.916.047-3.741.14c-.264.03-.495.138-.692.324a1.304 1.304 0 0 0-.385.685 6.172 6.172 0 0 0-.125.823c-.028.307-.044.56-.047.761-.004.2-.006.48-.006.837 0 .356.002.635.006.836.003.2.02.455.047.761.028.307.068.581.12.823.06.271.189.5.387.686.2.185.43.293.695.323.825.093 2.072.14 3.741.14 1.67 0 2.917-.047 3.742-.14.264-.03.494-.138.692-.323.197-.186.325-.415.384-.686.056-.242.098-.516.126-.823.028-.306.043-.56.047-.761.004-.2.006-.48.006-.836 0-.357-.002-.636-.006-.837zM10.97 9.872l-2.855 1.784a.318.318 0 0 1-.19.056.386.386 0 0 1-.172-.045.332.332 0 0 1-.184-.312V7.786c0-.141.061-.245.184-.312a.336.336 0 0 1 .362.011L10.97 9.27a.32.32 0 0 1 .168.3.321.321 0 0 1-.168.302z" fill="#FFF" fill-rule="nonzero" mask="url(#b)"/></g></svg>