<?xml version="1.0" encoding="UTF-8"?>
<svg width="34px" height="48px" viewBox="0 0 34 48" version="1.1" xmlns="http://www.w3.org/2000/svg" xmlns:xlink="http://www.w3.org/1999/xlink">
    <!-- Generator: Sketch 53.2 (72643) - https://sketchapp.com -->
    <title>Group 4 Copy 2</title>
    <desc>Created with Sketch.</desc>
    <g id="Page-1" stroke="none" stroke-width="1" fill="none" fill-rule="evenodd">
        <g id="Homepage01" transform="translate(-1150.000000, -1642.000000)" fill="#FFFFFF">
            <g id="value-props" transform="translate(0.000000, 1304.000000)">
                <g transform="translate(53.000000, 136.000000)" id="Group-8">
                    <g transform="translate(967.000000, 0.000000)">
                        <g id="Group-4-Copy-2" transform="translate(130.000000, 201.000000)">
                            <path d="M9.171,0.9994 L0.001,10.1714 L0.001,45.0014 L10.001,45.0014 L10.001,41.0014 L3.999,41.0014 L3.999,14.9994 L14.001,14.9994 L14.001,5.0014 L30.001,5.0014 L30.001,41.0014 L23.995,41.0014 L23.995,45.0014 L34.001,45.0014 L34.001,0.9994 L9.171,0.9994 Z M10.001,5.8294 L10.001,10.9994 L4.827,10.9994 L10.001,5.8294 Z" id="Fill-1"></path>
                            <path d="M17,27 C19.758,27 22,29.244 22,32 C22,34.756 19.758,37 17,37 C14.242,37 12,34.756 12,32 C12,29.244 14.242,27 17,27 L17,27 Z M17,44 L22,49 L22,39.476 C24.41,37.86 26,35.114 26,32 C26,27.038 21.962,23 17,23 C12.038,23 8,27.038 8,32 C8,35.114 9.59,37.86 12,39.476 L12,49 L17,44 Z" id="Fill-2"></path>
                        </g>
                    </g>
                </g>
            </g>
        </g>
    </g>
</svg>