<svg id="Layer_1" data-name="Layer 1" xmlns="http://www.w3.org/2000/svg" width="1.5in" height="1.36in" viewBox="0 0 108 97.92"><defs><style>.cls-1,.cls-2{fill:none;stroke-linecap:round;stroke-width:3px;}.cls-1{stroke:#2d97c8;}.cls-2{stroke:#df1375;}</style></defs><title>Artboard 1</title><g id="Page-1"><g id="Homepage01-Copy-5"><g id="Group-43-Copy"><g id="Group-27-Copy"><path id="Combined-Shape" class="cls-1" d="M53.23,21H78.46a2,2,0,0,1,1.58.78l15.5,20.07a2,2,0,0,1-.1,2.56L53.23,91.27,11,44.37a2,2,0,0,1-.09-2.56L26.41,21.74A2,2,0,0,1,28,21Z"/><path id="Path-7" class="cls-1" d="M10.9,43.46H96"/><path id="Path-8" class="cls-1" d="M53.43,90.46l-20-47"/><path class="cls-1" d="M52.9,90.46l20-47"/><path id="Path-9" class="cls-1" d="M32.9,43.46,52.9,21"/><path class="cls-1" d="M33.9,43.46,27,21.46"/><path id="Path-9-Copy-2" class="cls-1" d="M72.9,43.46l6.88-22"/><path id="Path-9-Copy" class="cls-1" d="M72.9,43.46,52.9,21"/></g><g id="Group-28-Copy-2"><path id="Path-10" class="cls-2" d="M10.5,21.46h7"/><path id="Path-10-Copy" class="cls-2" d="M26,6v7"/></g><g id="Group-28-Copy-3"><path class="cls-2" d="M97.5,21.46h-7"/><path class="cls-2" d="M82,6v7"/></g></g></g></g></svg>