<svg id="Layer_1" data-name="Layer 1" xmlns="http://www.w3.org/2000/svg" width="1.5in" height="1.36in" viewBox="0 0 108 97.92"><defs><style>.cls-1,.cls-2{fill:none;stroke-linecap:round;stroke-width:3px;}.cls-1{stroke:#2d97c8;}.cls-2{stroke:#df1375;}</style></defs><title>icon-publishers</title><g id="Page-1"><g id="Homepage01-Copy-5"><g id="Group-38-Copy"><g id="Group-32"><path id="Rectangle-Copy-8" class="cls-1" d="M6.87,22.49a58.6,58.6,0,0,1,18.63-3.1,58.6,58.6,0,0,1,18.63,3.1h0a2,2,0,0,1,1.37,1.9v62.1a2,2,0,0,1-2,2,2.18,2.18,0,0,1-.57-.08A60.48,60.48,0,0,0,25.5,85.8,60.48,60.48,0,0,0,8.07,88.41h0a2,2,0,0,1-2.49-1.35,2.18,2.18,0,0,1-.08-.57V24.39A2,2,0,0,1,6.87,22.49Z"/><path id="Path-Copy-4" class="cls-1" d="M71.27,19.69a55.75,55.75,0,0,0-5.77-.3,58.7,58.7,0,0,0-18.43,3h0a2.28,2.28,0,0,0-1.57,2.17V86.11a2.28,2.28,0,0,0,2.29,2.28,2.35,2.35,0,0,0,.64-.09,59.53,59.53,0,0,1,34.14,0h0a2.29,2.29,0,0,0,2.84-1.55,2.35,2.35,0,0,0,.09-.64v-38"/><path id="Path-Copy-5" class="cls-1" d="M26.5,20.39V40.22a.18.18,0,0,1-.18.17.11.11,0,0,1-.08,0L19.5,36.42l-6.74,3.95a.17.17,0,0,1-.24-.07.19.19,0,0,1,0-.08q0-14.32,0-19.33"/><g id="Group-22-Copy"><path id="Path-3" class="cls-1" d="M12.5,52H25.21"/><path id="Path-3-Copy" class="cls-1" d="M12.5,59H33"/><path id="Path-3-Copy-2" class="cls-1" d="M12.5,66H33"/><path id="Path-3-Copy-3" class="cls-1" d="M12.5,73H33"/></g></g><g id="Group-34"><path id="Rectangle" class="cls-2" d="M75.56,44l-7.49-7.49a.69.69,0,0,1,0-1L89.53,14,98,22.49,76.55,44A.71.71,0,0,1,75.56,44Z"/><path id="Rectangle-Copy-4" class="cls-2" d="M64.74,47.28q-1.44-1.44,2.91-10.9h0a.71.71,0,0,1,.93-.35.75.75,0,0,1,.2.15l7.07,7.06a.69.69,0,0,1,0,1,1,1,0,0,1-.2.15Q66.19,48.72,64.74,47.28Z"/><path id="Rectangle-Copy-3" class="cls-2" d="M98,22.54l-8.49-8.49,4-4a1.39,1.39,0,0,1,2,0l6.51,6.5a1.41,1.41,0,0,1,0,2Z"/><path id="Path-2" class="cls-2" d="M71.55,40,82,29.47"/><path id="Path-2-Copy" class="cls-2" d="M87.61,23.9l4.49-4.49"/></g></g></g></g></svg>