<?xml version="1.0" encoding="UTF-8"?>
<svg width="47px" height="49px" viewBox="0 0 47 49" version="1.1" xmlns="http://www.w3.org/2000/svg" xmlns:xlink="http://www.w3.org/1999/xlink">
    <!-- Generator: Sketch 53.2 (72643) - https://sketchapp.com -->
    <title>Group 6 Copy</title>
    <desc>Created with Sketch.</desc>
    <g id="Page-1" stroke="none" stroke-width="1" fill="none" fill-rule="evenodd">
        <g id="Homepage01" transform="translate(-703.000000, -1440.000000)" fill="#FFFFFF">
            <g id="value-props" transform="translate(0.000000, 1304.000000)">
                <g transform="translate(53.000000, 136.000000)" id="Group-9">
                    <g transform="translate(494.000000, 0.000000)">
                        <g id="Group-6-Copy" transform="translate(156.000000, 0.000000)">
                            <path d="M12.0006,32.1736 L12.0006,40.9996 L20.8286,40.9996 L46.8286,14.9996 L38.0006,6.1716 L12.0006,32.1736 Z M18.8286,30.9976 L38.0006,11.8296 L41.1706,14.9996 L21.9986,34.1736 L18.8286,30.9976 Z M16.0006,33.8296 L19.1726,36.9996 L16.0006,36.9996 L16.0006,33.8296 Z" id="Fill-1"></path>
                            <polygon id="Fill-2" points="0 0.9994 0 48.9974 34 48.9974 34 34.9994 30 34.9994 30 44.9994 4 44.9994 4 4.9994 30 4.9994 30 8.9994 34 8.9994 34 0.9994"></polygon>
                            <polygon id="Fill-3" points="8 13 24 13 24 9 8 9"></polygon>
                            <polygon id="Fill-4" points="8 21 18 21 18 17 8 17"></polygon>
                            <polygon id="Fill-5" points="8 29 12 29 12 25 8 25"></polygon>
                        </g>
                    </g>
                </g>
            </g>
        </g>
    </g>
</svg>