<?xml version="1.0" encoding="UTF-8"?>
<svg width="44px" height="49px" viewBox="0 0 44 49" version="1.1" xmlns="http://www.w3.org/2000/svg" xmlns:xlink="http://www.w3.org/1999/xlink">
    <!-- Generator: Sketch 53.2 (72643) - https://sketchapp.com -->
    <title>Group 3 Copy</title>
    <desc>Created with Sketch.</desc>
    <g id="Page-1" stroke="none" stroke-width="1" fill="none" fill-rule="evenodd">
        <g id="Homepage01" transform="translate(-1146.000000, -1440.000000)" fill="#FFFFFF">
            <g id="value-props" transform="translate(0.000000, 1304.000000)">
                <g transform="translate(53.000000, 136.000000)" id="Group-8">
                    <g transform="translate(967.000000, 0.000000)">
                        <g id="Group-3-Copy" transform="translate(126.000000, 0.000000)">
                            <polygon id="Fill-1" points="21 32.172 17.414 28.586 14.586 31.414 21 37.828 31.414 27.414 28.586 24.586"></polygon>
                            <path d="M32.0004,0.9994 L32.0004,5.0014 L12.0004,5.0014 L12.0004,0.9994 L7.9984,0.9994 L7.9984,5.0014 L0.0004,5.0014 L0.0004,48.9994 L43.9984,48.9994 L43.9984,5.0014 L36.0004,5.0014 L36.0004,0.9994 L32.0004,0.9994 Z M36.0004,12.9994 L36.0004,9.0014 L40.0004,9.0014 L40.0004,14.9994 L4.0004,14.9994 L4.0004,9.0014 L7.9984,9.0014 L7.9984,12.9994 L12.0004,12.9994 L12.0004,9.0014 L32.0004,9.0014 L32.0004,12.9994 L36.0004,12.9994 Z M4.0004,45.0014 L40.0004,45.0014 L40.0004,18.9994 L4.0004,18.9994 L4.0004,45.0014 Z" id="Fill-2"></path>
                        </g>
                    </g>
                </g>
            </g>
        </g>
    </g>
</svg>