<svg id="Layer_1" data-name="Layer 1" xmlns="http://www.w3.org/2000/svg" width="1.5in" height="1.36in" viewBox="0 0 108 97.92"><defs><style>.cls-1,.cls-2,.cls-3,.cls-5{fill:none;stroke-width:3px;}.cls-1,.cls-2{stroke:#df1375;}.cls-2,.cls-3{stroke-linecap:round;}.cls-3,.cls-5{stroke:#2d97c8;}.cls-4{fill:#2d97c8;}</style></defs><title>icon-ecommerce</title><g id="Page-1"><g id="Homepage01-Copy-5"><g id="Group-37-Copy"><g id="Group-25-Copy"><path id="Rectangle" class="cls-1" d="M58.3,50,68,72.54H93.16a6.51,6.51,0,0,0,6.29-4.86l4.14-15.84a1.58,1.58,0,0,0,0-.38,1.5,1.5,0,0,0-1.5-1.5Z"/><path id="Path-4" class="cls-2" d="M47,44.53h4.93a4,4,0,0,1,3.65,2.36L69.65,78.23A4,4,0,0,0,73.3,80.6H96.52"/><circle id="Oval" class="cls-1" cx="77.02" cy="85.56" r="5"/><circle id="Oval-Copy" class="cls-1" cx="96" cy="85.56" r="5"/></g><g id="Group-33"><path id="Path-Copy-2" class="cls-3" d="M59.18,87.46H9.66c-3.13,0-5.66,0-5.66-6.15V13.61C4,7.46,6.53,7.46,9.66,7.46H81.34c3.13,0,5.66.28,5.66,6.15V36.18"/><path id="Path-5-Copy-3" class="cls-3" d="M4,18H87"/><path id="Path-5-Copy-4" class="cls-3" d="M39,27H65"/><path id="Path-5-Copy-5" class="cls-3" d="M39,36H80"/><g id="Group-26-Copy"><circle class="cls-4" cx="10.5" cy="12.96" r="1.5"/><circle id="Oval-Copy-2" class="cls-4" cx="14.5" cy="12.96" r="1.5"/><circle id="Oval-Copy-3" class="cls-4" cx="18.5" cy="12.96" r="1.5"/></g><rect id="Rectangle-Copy-6" class="cls-5" x="10.5" y="24.96" width="21" height="19" rx="4"/><rect id="Rectangle-Copy-7" class="cls-5" x="10.5" y="52.96" width="32" height="19" rx="4"/></g></g></g></g></svg>