<svg id="Layer_1" data-name="Layer 1" xmlns="http://www.w3.org/2000/svg" width="1.5in" height="1.36in" viewBox="0 0 108 97.92"><defs><style>.cls-1,.cls-2{fill:none;stroke:#2d97c8;stroke-linecap:round;}.cls-1{stroke-width:2.5px;}.cls-2{stroke-width:3px;}.cls-3{fill:#df1375;}</style></defs><title>icon-brands</title><g id="Page-1"><g id="Homepage01-Copy-5"><g id="Group-44-Copy"><g id="Group-30-Copy"><path id="Shape" class="cls-1" d="M19.06,64.73A34.83,34.83,0,0,0,51.87,88h0A34.62,34.62,0,0,0,69,83.46M85,63.88A34.82,34.82,0,0,0,19.15,41.16"/><path id="Path-Copy" class="cls-2" d="M25,22c-9.53.39-16.4,3.27-18.43,8.58C2.44,41.47,20.14,58.39,46.12,68.39h0c26,10,50.43,9.31,54.58-1.55,1.82-4.74-.54-10.64-5.93-16.61"/><path class="cls-2" d="M53.07,27.79A25.19,25.19,0,0,0,30.94,41"/></g><g id="Group-31-Copy"><circle id="Oval" class="cls-3" cx="20" cy="1.46" r="1.5"/><circle id="Oval-Copy-5" class="cls-3" cx="24" cy="5.46" r="1.5"/><circle id="Oval-Copy-4" class="cls-3" cx="20" cy="9.46" r="1.5"/><circle id="Oval-Copy-6" class="cls-3" cx="16" cy="5.46" r="1.5"/></g><circle id="Oval-Copy-10" class="cls-3" cx="86.5" cy="18.96" r="2"/><path id="Path-Copy-3" class="cls-3" d="M89.46,94l-1.87,1-1,1.87a.67.67,0,0,1-.89.26.63.63,0,0,1-.25-.26l-1-1.87-1.87-1a.67.67,0,0,1-.26-.89.63.63,0,0,1,.26-.25l1.87-1,1-1.87a.67.67,0,0,1,.89-.26.65.65,0,0,1,.26.26l1,1.87,1.87,1a.67.67,0,0,1,.26.89A.65.65,0,0,1,89.46,94Z"/></g></g></g></svg>