<?xml version="1.0" encoding="UTF-8"?>
<svg width="48px" height="49px" viewBox="0 0 48 49" version="1.1" xmlns="http://www.w3.org/2000/svg" xmlns:xlink="http://www.w3.org/1999/xlink">
    <!-- Generator: Sketch 53.2 (72643) - https://sketchapp.com -->
    <title>Group 3 Copy 2</title>
    <desc>Created with Sketch.</desc>
    <g id="Page-1" stroke="none" stroke-width="1" fill="none" fill-rule="evenodd">
        <g id="Homepage01" transform="translate(-226.000000, -1641.000000)" fill="#FFFFFF">
            <g id="value-props" transform="translate(0.000000, 1304.000000)">
                <g transform="translate(53.000000, 136.000000)" id="Group-12">
                    <g>
                        <g id="Group-6" transform="translate(50.000000, 200.000000)">
                            <g id="Group-3-Copy-2" transform="translate(123.000000, 0.000000)">
                                <polygon id="Fill-1" points="34.0002 0.9994 34.0002 5.0014 41.1722 5.0014 28.0002 18.1714 20.0002 10.1714 0.5862 29.5854 3.4142 32.4134 20.0002 15.8274 28.0002 23.8294 43.9982 7.8294 43.9982 14.9994 48.0002 14.9994 48.0002 0.9994"></polygon>
                                <path d="M32.0004,23.0008 L32.0004,45.0008 L30.0004,45.0008 L30.0004,29.0008 L18.0004,29.0008 L18.0004,45.0008 L16.0004,45.0008 L16.0004,36.9988 L4.0004,36.9988 L4.0004,45.0008 L0.0004,45.0008 L0.0004,49.0008 L48.0004,49.0008 L48.0004,45.0008 L43.9984,45.0008 L43.9984,23.0008 L32.0004,23.0008 Z M36.0004,45.0008 L40.0004,45.0008 L40.0004,27.0008 L36.0004,27.0008 L36.0004,45.0008 Z M22.0004,44.9988 L26.0004,44.9988 L26.0004,32.9988 L22.0004,32.9988 L22.0004,44.9988 Z M7.9984,45.0008 L12.0004,45.0008 L12.0004,41.0008 L7.9984,41.0008 L7.9984,45.0008 Z" id="Fill-2"></path>
                            </g>
                        </g>
                    </g>
                </g>
            </g>
        </g>
    </g>
</svg>