<?xml version="1.0" encoding="UTF-8"?>
<svg width="48px" height="48px" viewBox="0 0 48 48" version="1.1" xmlns="http://www.w3.org/2000/svg" xmlns:xlink="http://www.w3.org/1999/xlink">
    <!-- Generator: Sketch 53.2 (72643) - https://sketchapp.com -->
    <title>Group 7 Copy</title>
    <desc>Created with Sketch.</desc>
    <g id="Page-1" stroke="none" stroke-width="1" fill="none" fill-rule="evenodd">
        <g id="Homepage01" transform="translate(-1144.000000, -1841.000000)" fill="#FFFFFF">
            <g id="value-props" transform="translate(0.000000, 1304.000000)">
                <g transform="translate(53.000000, 136.000000)" id="Group-8">
                    <g transform="translate(967.000000, 0.000000)">
                        <g id="Group-7-Copy" transform="translate(124.000000, 401.000000)">
                            <path d="M30,44 L4,44 L4,42 C4,38.692 6.692,36 10,36 L24,36 C27.308,36 30,38.692 30,42 L30,44 Z M34,42 C34,36.486 29.514,32 24,32 L10,32 C4.486,32 0,36.486 0,42 L0,48 L34,48 L34,42 Z" id="Fill-1"></path>
                            <path d="M17,16 C19.758,16 22,18.244 22,21 C22,23.756 19.758,26 17,26 C14.242,26 12,23.756 12,21 C12,18.244 14.242,16 17,16 M17,30 C21.962,30 26,25.964 26,21 C26,16.038 21.962,12 17,12 C12.038,12 8,16.038 8,21 C8,25.964 12.038,30 17,30" id="Fill-3"></path>
                            <path d="M44,0 L20,0 C17.794,0 16,1.794 16,4 L16,10 L20,10 L20,4 L44,4 L44,18 L37.172,18 L33.992,21.18 L33.986,18 L28,18 L28,22 L29.994,22 L30.008,30.822 L38.828,22 L44,22 C46.206,22 48,20.206 48,18 L48,4 C48,1.794 46.206,0 44,0" id="Fill-5"></path>
                        </g>
                    </g>
                </g>
            </g>
        </g>
    </g>
</svg>