<svg viewBox="0 0 834.3 171.7" xmlns="http://www.w3.org/2000/svg"><path d="m328.4 116.4c.8 10.8 4 20.4 10.8 28.6 7.6 9.2 17.4 14.7 29.2 16 18 1.9 33.5-3.6 46-16.9l1.2-1.5c.6-.8 1.3-.8 2-.2 2 1.6 4 3.3 5.9 4.9.8.7.4 1.4-.1 2-2.7 2.8-5.2 5.8-8.1 8.3-8.1 6.8-17.7 10.8-28 12.8-12.3 2.3-24.4 1.5-36-3.5-17.5-7.6-28.4-20.8-32.6-39.3-3.3-14.6-2-28.9 4.5-42.5 8.1-16.9 21.5-27.1 40-30.2 11.2-1.9 22.1-.7 32.4 4.1 7.3 3.4 13.2 8.4 18.2 14.7 6.5 8.1 10.6 17.2 12.3 27.4.8 4.6 1.2 9.2.7 13.9-.1 1.2-.5 1.6-1.7 1.6h-96.7zm.4-10.4h86.8c-.9-11.5-5.3-21.4-13-29.8-7.4-8-16.8-11.7-27.5-12.1-29-1-45.1 20-46.3 41.9m298.2 10.4c.2 4.4.9 8.5 2.1 12.4 5 15.7 15.2 26.2 31.2 30.8 11.6 3.3 23 2 34-2.5 7.7-3.2 14.5-7.8 19.7-14.4.8-1 1.4-1 2.4-.2 1.8 1.5 3.5 3 5.3 4.4 1 .8 1 1.5.3 2.5-2.7 3.5-5.8 6.7-9.4 9.3-9.2 6.9-19.5 10.9-30.8 12.3-14.8 1.9-28.7-.9-41.2-9.2-12.3-8.2-20-19.7-23.2-34-3.3-14.8-2.1-29.2 4.5-43 7.7-16 20.4-26.1 37.9-29.7 11.9-2.4 23.5-1.4 34.6 3.8 7.2 3.3 13.1 8.4 18.1 14.6 6.5 8.1 10.6 17.3 12.3 27.5.8 4.5 1.2 9.1.7 13.7-.1 1.2-.5 1.6-1.8 1.6h-96.7zm87.1-10.3v-.8c-.5-5.3-1.7-10.4-3.9-15.2-3.5-7.8-8.4-14.6-15.7-19.4-5.8-3.9-12.3-5.8-19.3-6.3-8.8-.7-17.2.7-25.1 4.8-11.5 6-18.3 15.7-21.5 28-.7 2.9-1.1 5.8-1.7 8.9zm-517.2-49.3h11.2v68.3c0 5.4.6 10.6 2.6 15.7 4.9 12.1 13.8 18.9 26.7 20.5 8.2 1 16-.2 23.4-4 9.9-5.2 15.5-13.6 17.6-24.4.6-3 .8-6.1.8-9.1.1-21.8 0-43.5 0-65.3v-1.6h11.1v112h-10.3v-17.7c-1.3 1.8-2.3 3.3-3.5 4.7-6.3 7.7-14.4 12.5-24.1 14.6-10 2.2-20 1.9-29.6-2.1-13.1-5.4-21-15.3-24.3-28.9-1-4.2-1.5-8.6-1.6-12.9-.1-22.8-.1-45.7-.1-68.5v-1.3zm587 47.7c2-2.6 4-5.2 5.9-7.7l30.3-39.3c.3-.4 1-.7 1.6-.7 3-.1 6-.1 9 0 .5 0 1.2.3 1.4.7.2.2-.1 1-.4 1.4-13.7 17.6-27.5 35.2-41.2 52.8-.1.1-.2.3-.4.5l44.1 55.5c-.2.9-.8 1.2-1.7 1.2-3.1-.1-6.3-.1-9.4 0-.9 0-1.4-.3-1.9-1-12.7-15.8-25.3-31.6-38-47.4-.1-.2-.3-.3-.5-.6-2.2 2.8-4.4 5.6-6.5 8.4-10.2 13.2-20.4 26.4-30.6 39.5-.5.7-1 1-1.9 1-3-.1-6 0-9 0-.5 0-1.3-.2-1.4-.5-.1-.4.1-1.1.4-1.5 9.6-12.3 19.3-24.5 28.9-36.8 4.5-5.7 8.9-11.4 13.4-17 .6-.7.5-1.2 0-1.9-13.5-17.4-27-34.9-40.4-52.3-.3-.4-.6-1.1-.5-1.6.1-.3 1-.5 1.5-.5h9.4c.8 0 1.2.2 1.7.8 11.7 15.2 23.4 30.4 35.1 45.7.4.4.7.8 1.1 1.3m-300.3 67.2c-11.6-.1-22.2-3.3-31.4-10.5-3.5-2.8-6.5-6-9.1-9.6-.7-1-.6-1.6.4-2.4 1.9-1.4 3.7-2.8 5.5-4.2 1.2-.9 1.6-.8 2.4.4 6 8.8 14.3 13.9 24.7 15.5 7.6 1.2 15.1.7 22.2-2.4 6.2-2.7 10.7-6.9 12.1-13.7 1.7-8.4-1.3-15.1-8.1-20.2-5.3-4-11.3-6.5-17.3-8.9-6.6-2.7-13.3-5.1-19.5-8.7-4.5-2.6-8.6-5.7-11.6-10.1-5.9-8.6-5.4-21.2 1.1-29.9 4.9-6.5 11.7-10.2 19.5-11.9 11.4-2.5 22.4-1.1 32.6 4.8 5.1 3 9.4 6.9 12.8 11.8.7 1 .6 1.7-.4 2.5-1.8 1.3-3.6 2.8-5.4 4.2-.9.7-1.5.7-2.2-.3-5.7-7.7-13.2-12.3-22.6-13.6-7.3-1-14.4-.2-20.6 4-9.6 6.5-10 19.5-.9 26.8 5 4 10.8 6.3 16.5 8.8 6.3 2.7 12.7 5.3 18.9 8.4 5.8 2.8 10.9 6.7 14.6 12.2 3.7 5.7 5 12 4.4 18.7-1.4 14.1-10.1 21.9-22.8 26-2.2.7-4.4 1.2-6.6 1.5-3.3.4-6.2.6-9.2.8m71.1-105.3h-19.6v-9.7h19.6v-34.9c1.6-.2 3-.4 4.5-.7 1.6-.2 3.1-.4 4.7-.6 1.5-.2 1.8.2 1.8 1.7v34.4h36.2v9.7h-36.2c0 .5-.1.8-.1 1.1v71.6c0 4.9.9 9.6 3.5 13.9 2.8 4.6 7 7.1 12.2 8 5.5.9 11 .5 16-2.2 1.2-.6 2.2-1.4 3.3-2.2.9-.7 1.5-.6 2.1.4 1 1.8 1.9 3.7 3 5.6.7 1.2.2 1.9-.7 2.6-3.7 2.8-7.7 4.8-12.3 5.6-8.5 1.6-16.7 1-24.3-3.5-7-4-10.9-10.4-12.5-18.1-.8-3.9-1.2-7.9-1.3-11.9-.1-23.1-.1-46.1-.1-69.2v-1.6zm-409.4-41.5c-33.3-33.2-87.2-33.2-120.4 0s-33.2 87.1 0 120.3c15.1 15.2 34.5 23.4 54.3 24.8v.2h91v-91h-.2c-1.4-19.8-9.6-39.2-24.7-54.3m-6.5 113.6c-29.6 29.6-77.6 29.6-107.2 0s-29.6-77.6 0-107.2c29.6-29.6 77.6-29.6 107.2 0s29.6 77.6 0 107.2" fill="#281c19"/><path d="m132.3 131.8c-25.9 25.9-68 25.9-93.8 0-25.9-25.9-25.9-68 0-93.8 25.9-25.9 68-25.9 93.8 0 25.9 25.8 25.9 67.9 0 93.8m-91.2-91.2c-24.4 24.4-24.4 64.1 0 88.5s64.1 24.4 88.5 0 24.4-64.1 0-88.5-64.1-24.4-88.5 0" fill="#00bed8"/></svg>