<?xml version="1.0" encoding="utf-8"?>
<!-- Generator: Adobe Illustrator 26.0.1, SVG Export Plug-In . SVG Version: 6.00 Build 0)  -->
<svg version="1.1" id="Layer_1" xmlns="http://www.w3.org/2000/svg" xmlns:xlink="http://www.w3.org/1999/xlink" x="0px" y="0px"
	 viewBox="0 0 1441 129" style="enable-background:new 0 0 1441 129;" xml:space="preserve">
<style type="text/css">
	.st0{fill-rule:evenodd;clip-rule:evenodd;fill:#FFFFFF;}
</style>
<g id="Page-1">
	<g id="undulation2">
		<path id="Fill-1-Copy-2" class="st0" d="M1441,67.8V130H0V1c3.5,1.3,7,2.7,10.6,4c12.8,4.8,25.7,9.3,38.7,13.7
			c61.1,20.6,124.1,36.2,188.3,49.6c15,3.1,30.4,5.8,45.9,8.2c77.3,11.9,159.8,15.1,240.6,14.1c43.8-0.5,87-2.3,128.7-4.6
			c24.9-1.4,49.7-3.2,74.5-5.4c2-0.2,3.9-0.3,5.9-0.5C842.2,70,950,51.8,1059.6,45C1187,37.1,1316.3,44.8,1441,67.8"/>
	</g>
</g>
</svg>
