<?xml version="1.0" encoding="utf-8"?>
<!-- Generator: Adobe Illustrator 23.0.2, SVG Export Plug-In . SVG Version: 6.00 Build 0)  -->
<svg version="1.1" id="Layer_1" xmlns="http://www.w3.org/2000/svg" xmlns:xlink="http://www.w3.org/1999/xlink" x="0px" y="0px"
	 width="1440px" height="149px" viewBox="0 0 1440 149" style="enable-background:new 0 0 1440 149;" xml:space="preserve">
<style type="text/css">
	.st0{fill-rule:evenodd;clip-rule:evenodd;fill:#FFFFFF;}
	.st1{opacity:0.15;fill-rule:evenodd;clip-rule:evenodd;fill:#FFFFFF;enable-background:new    ;}
</style>
<title>Artboard 1</title>
<g id="hero">
	<g id="hero-pattern">
		<g id="waves">
			<path id="Fill-1" class="st0" d="M1440,92.7v61.1H0V26c3.5,1.3,7,2.6,10.6,4c12.8,4.8,25.7,9.3,38.7,13.7
				c61,20.6,124,36.2,188.1,49.5c15,3.1,30.3,5.8,45.8,8.2c77.3,11.9,159.7,15.1,240.4,14.1c43.7-0.5,86.9-2.3,128.6-4.6
				c24.9-1.4,49.7-3.2,74.5-5.4c2-0.2,3.9-0.3,5.9-0.5C841.7,94.9,949.4,76.7,1059,69.9C1186.4,62,1314.3,69.7,1440,92.7"/>
			<path id="Fill-4-Copy" class="st1" d="M0,38.7v206.2h1440V0c-10.2,0.7-20.3,1.6-30.4,2.6c-5.5,0.5-11,1.1-16.4,1.7
				c-163.7,18.3-322.4,69.7-484,94.4c-60.6,9.3-121.6,14.8-183.4,13.4c-65.9-1.5-130.7-10.8-195.1-22.8
				c-41.2-7.7-82.2-16.4-123.3-24.8c-23.8-4.9-47.7-9.7-71.6-14.1C238.3,32.2,135.6,20.5,37.6,32.7C25,34.3,12.4,36.3,0,38.7"/>
		</g>
	</g>
</g>
</svg>
