<?xml version="1.0" encoding="utf-8"?>
<!-- Generator: Adobe Illustrator 24.1.2, SVG Export Plug-In . SVG Version: 6.00 Build 0)  -->
<svg version="1.1" id="Layer_1" xmlns="http://www.w3.org/2000/svg" xmlns:xlink="http://www.w3.org/1999/xlink" x="0px" y="0px"
	 viewBox="0 0 39.1 31.8" style="enable-background:new 0 0 39.1 31.8;" xml:space="preserve">
<style type="text/css">
	.st0{fill:#231F20;}
</style>
<path class="st0" d="M1.6,26c3.3-1.7,7-6,7.9-9.7c-0.3,0.2-1.2,0.4-1.9,0.4c-3.9,0-6.9-3.1-6.9-7.4c0-4.5,3.7-8.2,8-8.2
	c4.8,0,9.2,3.8,9.2,10.4c0,7.7-4.3,14.5-10.5,19L1.6,26z M22.3,26c3.3-1.7,7-6,8-9.7c-0.4,0.2-1.2,0.4-2,0.4c-3.9,0-6.9-3.1-6.9-7.4
	c0-4.5,3.7-8.2,8.1-8.2c4.8,0,9.1,3.8,9.1,10.4c0,7.7-4.2,14.5-10.5,19L22.3,26z"/>
</svg>
